<?xml version="1.0" encoding="UTF-8" standalone="no"?>
<!DOCTYPE svg PUBLIC "-//W3C//DTD SVG 1.1//EN"
 "http://www.w3.org/Graphics/SVG/1.1/DTD/svg11.dtd">
<!-- Generated by graphviz version 2.47.3 (20210619.2315)
 -->
<!-- Title: snakemake_dag Pages: 1 -->
<svg width="5658pt" height="265pt"
 viewBox="0.00 0.00 5658.06 265.00" xmlns="http://www.w3.org/2000/svg" xmlns:xlink="http://www.w3.org/1999/xlink">
<g id="graph0" class="graph" transform="scale(1 1) rotate(0) translate(4 261)">
<title>snakemake_dag</title>
<polygon fill="white" stroke="transparent" points="-4,4 -4,-261 5654.06,-261 5654.06,4 -4,4"/>
<!-- 0 -->
<g id="node1" class="node">
<title>0</title>
<path fill="none" stroke="#d8bc56" stroke-width="2" d="M4033.45,-36C4033.45,-36 4003.45,-36 4003.45,-36 3997.45,-36 3991.45,-30 3991.45,-24 3991.45,-24 3991.45,-12 3991.45,-12 3991.45,-6 3997.45,0 4003.45,0 4003.45,0 4033.45,0 4033.45,0 4039.45,0 4045.45,-6 4045.45,-12 4045.45,-12 4045.45,-24 4045.45,-24 4045.45,-30 4039.45,-36 4033.45,-36"/>
<text text-anchor="middle" x="4018.45" y="-15.5" font-family="sans" font-size="10.00">all</text>
</g>
<!-- 1 -->
<g id="node2" class="node">
<title>1</title>
<path fill="none" stroke="#88d856" stroke-width="2" d="M695.45,-108C695.45,-108 633.45,-108 633.45,-108 627.45,-108 621.45,-102 621.45,-96 621.45,-96 621.45,-84 621.45,-84 621.45,-78 627.45,-72 633.45,-72 633.45,-72 695.45,-72 695.45,-72 701.45,-72 707.45,-78 707.45,-84 707.45,-84 707.45,-96 707.45,-96 707.45,-102 701.45,-108 695.45,-108"/>
<text text-anchor="middle" x="664.45" y="-87.5" font-family="sans" font-size="10.00">salmon_quant</text>
</g>
<!-- 1&#45;&gt;0 -->
<g id="edge1" class="edge">
<title>1&#45;&gt;0</title>
<path fill="none" stroke="grey" stroke-width="2" d="M707.76,-87.93C820.22,-85.18 1130.78,-77.64 1389.45,-72 2448.02,-48.92 3746.43,-24.16 3981.18,-19.71"/>
<polygon fill="grey" stroke="grey" stroke-width="2" points="3981.32,-23.2 3991.25,-19.51 3981.18,-16.2 3981.32,-23.2"/>
</g>
<!-- 2 -->
<g id="node3" class="node">
<title>2</title>
<path fill="none" stroke="#56d88a" stroke-width="2" d="M2929.45,-257C2929.45,-257 2833.45,-257 2833.45,-257 2827.45,-257 2821.45,-251 2821.45,-245 2821.45,-245 2821.45,-233 2821.45,-233 2821.45,-227 2827.45,-221 2833.45,-221 2833.45,-221 2929.45,-221 2929.45,-221 2935.45,-221 2941.45,-227 2941.45,-233 2941.45,-233 2941.45,-245 2941.45,-245 2941.45,-251 2935.45,-257 2929.45,-257"/>
<text text-anchor="middle" x="2881.45" y="-242" font-family="sans" font-size="10.00">cutadapt</text>
<text text-anchor="middle" x="2881.45" y="-231" font-family="sans" font-size="10.00">sample: SRR7798788</text>
</g>
<!-- 2&#45;&gt;1 -->
<g id="edge12" class="edge">
<title>2&#45;&gt;1</title>
<path fill="none" stroke="grey" stroke-width="2" d="M2821.29,-238.05C2412.78,-238.22 60.49,-236.99 9.45,-185 -3.32,-172 -2.91,-157.39 9.45,-144 49.91,-100.13 461.76,-92.57 610.9,-91.27"/>
<polygon fill="grey" stroke="grey" stroke-width="2" points="611.2,-94.77 621.17,-91.19 611.14,-87.77 611.2,-94.77"/>
</g>
<!-- 39 -->
<g id="node40" class="node">
<title>39</title>
<path fill="none" stroke="#d85656" stroke-width="2" d="M2934.95,-185C2934.95,-185 2827.95,-185 2827.95,-185 2821.95,-185 2815.95,-179 2815.95,-173 2815.95,-173 2815.95,-156 2815.95,-156 2815.95,-150 2821.95,-144 2827.95,-144 2827.95,-144 2934.95,-144 2934.95,-144 2940.95,-144 2946.95,-150 2946.95,-156 2946.95,-156 2946.95,-173 2946.95,-173 2946.95,-179 2940.95,-185 2934.95,-185"/>
<text text-anchor="middle" x="2881.45" y="-173" font-family="sans" font-size="10.00">fastqc</text>
<text text-anchor="middle" x="2881.45" y="-162" font-family="sans" font-size="10.00">dirs: trim</text>
<text text-anchor="middle" x="2881.45" y="-151" font-family="sans" font-size="10.00">sample: SRR7798788_1</text>
</g>
<!-- 2&#45;&gt;39 -->
<g id="edge57" class="edge">
<title>2&#45;&gt;39</title>
<path fill="none" stroke="grey" stroke-width="2" d="M2881.45,-220.82C2881.45,-213.2 2881.45,-204 2881.45,-195.32"/>
<polygon fill="grey" stroke="grey" stroke-width="2" points="2884.95,-195.12 2881.45,-185.12 2877.95,-195.12 2884.95,-195.12"/>
</g>
<!-- 40 -->
<g id="node41" class="node">
<title>40</title>
<path fill="none" stroke="#d85656" stroke-width="2" d="M3083.95,-185C3083.95,-185 2976.95,-185 2976.95,-185 2970.95,-185 2964.95,-179 2964.95,-173 2964.95,-173 2964.95,-156 2964.95,-156 2964.95,-150 2970.95,-144 2976.95,-144 2976.95,-144 3083.95,-144 3083.95,-144 3089.95,-144 3095.95,-150 3095.95,-156 3095.95,-156 3095.95,-173 3095.95,-173 3095.95,-179 3089.95,-185 3083.95,-185"/>
<text text-anchor="middle" x="3030.45" y="-173" font-family="sans" font-size="10.00">fastqc</text>
<text text-anchor="middle" x="3030.45" y="-162" font-family="sans" font-size="10.00">dirs: trim</text>
<text text-anchor="middle" x="3030.45" y="-151" font-family="sans" font-size="10.00">sample: SRR7798788_2</text>
</g>
<!-- 2&#45;&gt;40 -->
<g id="edge58" class="edge">
<title>2&#45;&gt;40</title>
<path fill="none" stroke="grey" stroke-width="2" d="M2916.76,-220.82C2935.95,-211.48 2959.99,-199.78 2981.01,-189.55"/>
<polygon fill="grey" stroke="grey" stroke-width="2" points="2982.66,-192.64 2990.12,-185.12 2979.6,-186.35 2982.66,-192.64"/>
</g>
<!-- 3 -->
<g id="node4" class="node">
<title>3</title>
<path fill="none" stroke="#88d856" stroke-width="2" d="M2866.45,-108C2866.45,-108 2804.45,-108 2804.45,-108 2798.45,-108 2792.45,-102 2792.45,-96 2792.45,-96 2792.45,-84 2792.45,-84 2792.45,-78 2798.45,-72 2804.45,-72 2804.45,-72 2866.45,-72 2866.45,-72 2872.45,-72 2878.45,-78 2878.45,-84 2878.45,-84 2878.45,-96 2878.45,-96 2878.45,-102 2872.45,-108 2866.45,-108"/>
<text text-anchor="middle" x="2835.45" y="-87.5" font-family="sans" font-size="10.00">salmon_quant</text>
</g>
<!-- 3&#45;&gt;0 -->
<g id="edge2" class="edge">
<title>3&#45;&gt;0</title>
<path fill="none" stroke="grey" stroke-width="2" d="M2878.68,-84.32C2914.49,-80.57 2966.73,-75.4 3012.45,-72 3390.28,-43.92 3849.04,-25.41 3981.2,-20.38"/>
<polygon fill="grey" stroke="grey" stroke-width="2" points="3981.35,-23.88 3991.21,-20 3981.08,-16.88 3981.35,-23.88"/>
</g>
<!-- 4 -->
<g id="node5" class="node">
<title>4</title>
<path fill="none" stroke="#56d88a" stroke-width="2" d="M3227.45,-257C3227.45,-257 3131.45,-257 3131.45,-257 3125.45,-257 3119.45,-251 3119.45,-245 3119.45,-245 3119.45,-233 3119.45,-233 3119.45,-227 3125.45,-221 3131.45,-221 3131.45,-221 3227.45,-221 3227.45,-221 3233.45,-221 3239.45,-227 3239.45,-233 3239.45,-233 3239.45,-245 3239.45,-245 3239.45,-251 3233.45,-257 3227.45,-257"/>
<text text-anchor="middle" x="3179.45" y="-242" font-family="sans" font-size="10.00">cutadapt</text>
<text text-anchor="middle" x="3179.45" y="-231" font-family="sans" font-size="10.00">sample: SRR7798796</text>
</g>
<!-- 4&#45;&gt;3 -->
<g id="edge13" class="edge">
<title>4&#45;&gt;3</title>
<path fill="none" stroke="grey" stroke-width="2" d="M3119.34,-232.94C3000.98,-222.67 2748.06,-199.21 2735.45,-185 2723.35,-171.37 2726.05,-159.61 2735.45,-144 2746.01,-126.44 2764.57,-114.39 2782.86,-106.27"/>
<polygon fill="grey" stroke="grey" stroke-width="2" points="2784.43,-109.41 2792.35,-102.38 2781.77,-102.94 2784.43,-109.41"/>
</g>
<!-- 41 -->
<g id="node42" class="node">
<title>41</title>
<path fill="none" stroke="#d85656" stroke-width="2" d="M3381.95,-185C3381.95,-185 3274.95,-185 3274.95,-185 3268.95,-185 3262.95,-179 3262.95,-173 3262.95,-173 3262.95,-156 3262.95,-156 3262.95,-150 3268.95,-144 3274.95,-144 3274.95,-144 3381.95,-144 3381.95,-144 3387.95,-144 3393.95,-150 3393.95,-156 3393.95,-156 3393.95,-173 3393.95,-173 3393.95,-179 3387.95,-185 3381.95,-185"/>
<text text-anchor="middle" x="3328.45" y="-173" font-family="sans" font-size="10.00">fastqc</text>
<text text-anchor="middle" x="3328.45" y="-162" font-family="sans" font-size="10.00">dirs: trim</text>
<text text-anchor="middle" x="3328.45" y="-151" font-family="sans" font-size="10.00">sample: SRR7798796_1</text>
</g>
<!-- 4&#45;&gt;41 -->
<g id="edge59" class="edge">
<title>4&#45;&gt;41</title>
<path fill="none" stroke="grey" stroke-width="2" d="M3214.76,-220.82C3233.95,-211.48 3257.99,-199.78 3279.01,-189.55"/>
<polygon fill="grey" stroke="grey" stroke-width="2" points="3280.66,-192.64 3288.12,-185.12 3277.6,-186.35 3280.66,-192.64"/>
</g>
<!-- 42 -->
<g id="node43" class="node">
<title>42</title>
<path fill="none" stroke="#d85656" stroke-width="2" d="M3232.95,-185C3232.95,-185 3125.95,-185 3125.95,-185 3119.95,-185 3113.95,-179 3113.95,-173 3113.95,-173 3113.95,-156 3113.95,-156 3113.95,-150 3119.95,-144 3125.95,-144 3125.95,-144 3232.95,-144 3232.95,-144 3238.95,-144 3244.95,-150 3244.95,-156 3244.95,-156 3244.95,-173 3244.95,-173 3244.95,-179 3238.95,-185 3232.95,-185"/>
<text text-anchor="middle" x="3179.45" y="-173" font-family="sans" font-size="10.00">fastqc</text>
<text text-anchor="middle" x="3179.45" y="-162" font-family="sans" font-size="10.00">dirs: trim</text>
<text text-anchor="middle" x="3179.45" y="-151" font-family="sans" font-size="10.00">sample: SRR7798796_2</text>
</g>
<!-- 4&#45;&gt;42 -->
<g id="edge60" class="edge">
<title>4&#45;&gt;42</title>
<path fill="none" stroke="grey" stroke-width="2" d="M3179.45,-220.82C3179.45,-213.2 3179.45,-204 3179.45,-195.32"/>
<polygon fill="grey" stroke="grey" stroke-width="2" points="3182.95,-195.12 3179.45,-185.12 3175.95,-195.12 3182.95,-195.12"/>
</g>
<!-- 5 -->
<g id="node6" class="node">
<title>5</title>
<path fill="none" stroke="#88d856" stroke-width="2" d="M3095.45,-108C3095.45,-108 3033.45,-108 3033.45,-108 3027.45,-108 3021.45,-102 3021.45,-96 3021.45,-96 3021.45,-84 3021.45,-84 3021.45,-78 3027.45,-72 3033.45,-72 3033.45,-72 3095.45,-72 3095.45,-72 3101.45,-72 3107.45,-78 3107.45,-84 3107.45,-84 3107.45,-96 3107.45,-96 3107.45,-102 3101.45,-108 3095.45,-108"/>
<text text-anchor="middle" x="3064.45" y="-87.5" font-family="sans" font-size="10.00">salmon_quant</text>
</g>
<!-- 5&#45;&gt;0 -->
<g id="edge3" class="edge">
<title>5&#45;&gt;0</title>
<path fill="none" stroke="grey" stroke-width="2" d="M3107.6,-85.83C3268.25,-74.05 3830.08,-32.82 3980.93,-21.75"/>
<polygon fill="grey" stroke="grey" stroke-width="2" points="3981.35,-25.23 3991.07,-21.01 3980.84,-18.25 3981.35,-25.23"/>
</g>
<!-- 6 -->
<g id="node7" class="node">
<title>6</title>
<path fill="none" stroke="#56d88a" stroke-width="2" d="M3525.45,-257C3525.45,-257 3429.45,-257 3429.45,-257 3423.45,-257 3417.45,-251 3417.45,-245 3417.45,-245 3417.45,-233 3417.45,-233 3417.45,-227 3423.45,-221 3429.45,-221 3429.45,-221 3525.45,-221 3525.45,-221 3531.45,-221 3537.45,-227 3537.45,-233 3537.45,-233 3537.45,-245 3537.45,-245 3537.45,-251 3531.45,-257 3525.45,-257"/>
<text text-anchor="middle" x="3477.45" y="-242" font-family="sans" font-size="10.00">cutadapt</text>
<text text-anchor="middle" x="3477.45" y="-231" font-family="sans" font-size="10.00">sample: SRR7798795</text>
</g>
<!-- 6&#45;&gt;5 -->
<g id="edge14" class="edge">
<title>6&#45;&gt;5</title>
<path fill="none" stroke="grey" stroke-width="2" d="M3417.18,-233.46C3250.37,-220.89 2794.77,-186.43 2793.45,-185 2781.07,-171.63 2781.86,-158.07 2793.45,-144 2807.2,-127.3 2936.29,-107.8 3011.24,-97.75"/>
<polygon fill="grey" stroke="grey" stroke-width="2" points="3011.98,-101.18 3021.43,-96.4 3011.06,-94.24 3011.98,-101.18"/>
</g>
<!-- 43 -->
<g id="node44" class="node">
<title>43</title>
<path fill="none" stroke="#d85656" stroke-width="2" d="M3530.95,-185C3530.95,-185 3423.95,-185 3423.95,-185 3417.95,-185 3411.95,-179 3411.95,-173 3411.95,-173 3411.95,-156 3411.95,-156 3411.95,-150 3417.95,-144 3423.95,-144 3423.95,-144 3530.95,-144 3530.95,-144 3536.95,-144 3542.95,-150 3542.95,-156 3542.95,-156 3542.95,-173 3542.95,-173 3542.95,-179 3536.95,-185 3530.95,-185"/>
<text text-anchor="middle" x="3477.45" y="-173" font-family="sans" font-size="10.00">fastqc</text>
<text text-anchor="middle" x="3477.45" y="-162" font-family="sans" font-size="10.00">dirs: trim</text>
<text text-anchor="middle" x="3477.45" y="-151" font-family="sans" font-size="10.00">sample: SRR7798795_1</text>
</g>
<!-- 6&#45;&gt;43 -->
<g id="edge61" class="edge">
<title>6&#45;&gt;43</title>
<path fill="none" stroke="grey" stroke-width="2" d="M3477.45,-220.82C3477.45,-213.2 3477.45,-204 3477.45,-195.32"/>
<polygon fill="grey" stroke="grey" stroke-width="2" points="3480.95,-195.12 3477.45,-185.12 3473.95,-195.12 3480.95,-195.12"/>
</g>
<!-- 44 -->
<g id="node45" class="node">
<title>44</title>
<path fill="none" stroke="#d85656" stroke-width="2" d="M3679.95,-185C3679.95,-185 3572.95,-185 3572.95,-185 3566.95,-185 3560.95,-179 3560.95,-173 3560.95,-173 3560.95,-156 3560.95,-156 3560.95,-150 3566.95,-144 3572.95,-144 3572.95,-144 3679.95,-144 3679.95,-144 3685.95,-144 3691.95,-150 3691.95,-156 3691.95,-156 3691.95,-173 3691.95,-173 3691.95,-179 3685.95,-185 3679.95,-185"/>
<text text-anchor="middle" x="3626.45" y="-173" font-family="sans" font-size="10.00">fastqc</text>
<text text-anchor="middle" x="3626.45" y="-162" font-family="sans" font-size="10.00">dirs: trim</text>
<text text-anchor="middle" x="3626.45" y="-151" font-family="sans" font-size="10.00">sample: SRR7798795_2</text>
</g>
<!-- 6&#45;&gt;44 -->
<g id="edge62" class="edge">
<title>6&#45;&gt;44</title>
<path fill="none" stroke="grey" stroke-width="2" d="M3512.76,-220.82C3531.95,-211.48 3555.99,-199.78 3577.01,-189.55"/>
<polygon fill="grey" stroke="grey" stroke-width="2" points="3578.66,-192.64 3586.12,-185.12 3575.6,-186.35 3578.66,-192.64"/>
</g>
<!-- 7 -->
<g id="node8" class="node">
<title>7</title>
<path fill="none" stroke="#88d856" stroke-width="2" d="M3448.45,-108C3448.45,-108 3386.45,-108 3386.45,-108 3380.45,-108 3374.45,-102 3374.45,-96 3374.45,-96 3374.45,-84 3374.45,-84 3374.45,-78 3380.45,-72 3386.45,-72 3386.45,-72 3448.45,-72 3448.45,-72 3454.45,-72 3460.45,-78 3460.45,-84 3460.45,-84 3460.45,-96 3460.45,-96 3460.45,-102 3454.45,-108 3448.45,-108"/>
<text text-anchor="middle" x="3417.45" y="-87.5" font-family="sans" font-size="10.00">salmon_quant</text>
</g>
<!-- 7&#45;&gt;0 -->
<g id="edge4" class="edge">
<title>7&#45;&gt;0</title>
<path fill="none" stroke="grey" stroke-width="2" d="M3460.67,-83.97C3573.47,-70.83 3875.34,-35.67 3981.17,-23.34"/>
<polygon fill="grey" stroke="grey" stroke-width="2" points="3981.83,-26.79 3991.36,-22.15 3981.02,-19.84 3981.83,-26.79"/>
</g>
<!-- 8 -->
<g id="node9" class="node">
<title>8</title>
<path fill="none" stroke="#56d88a" stroke-width="2" d="M3823.45,-257C3823.45,-257 3727.45,-257 3727.45,-257 3721.45,-257 3715.45,-251 3715.45,-245 3715.45,-245 3715.45,-233 3715.45,-233 3715.45,-227 3721.45,-221 3727.45,-221 3727.45,-221 3823.45,-221 3823.45,-221 3829.45,-221 3835.45,-227 3835.45,-233 3835.45,-233 3835.45,-245 3835.45,-245 3835.45,-251 3829.45,-257 3823.45,-257"/>
<text text-anchor="middle" x="3775.45" y="-242" font-family="sans" font-size="10.00">cutadapt</text>
<text text-anchor="middle" x="3775.45" y="-231" font-family="sans" font-size="10.00">sample: SRR7798794</text>
</g>
<!-- 8&#45;&gt;7 -->
<g id="edge15" class="edge">
<title>8&#45;&gt;7</title>
<path fill="none" stroke="grey" stroke-width="2" d="M3715.21,-233.11C3669.04,-229.46 3603.75,-224.52 3546.45,-221 3505.42,-218.48 2835.79,-214.76 2807.45,-185 2794.88,-171.81 2795.13,-157.43 2807.45,-144 2826.17,-123.58 3219.01,-101.27 3364.16,-93.69"/>
<polygon fill="grey" stroke="grey" stroke-width="2" points="3364.37,-97.18 3374.18,-93.17 3364.01,-90.19 3364.37,-97.18"/>
</g>
<!-- 45 -->
<g id="node46" class="node">
<title>45</title>
<path fill="none" stroke="#d85656" stroke-width="2" d="M3828.95,-185C3828.95,-185 3721.95,-185 3721.95,-185 3715.95,-185 3709.95,-179 3709.95,-173 3709.95,-173 3709.95,-156 3709.95,-156 3709.95,-150 3715.95,-144 3721.95,-144 3721.95,-144 3828.95,-144 3828.95,-144 3834.95,-144 3840.95,-150 3840.95,-156 3840.95,-156 3840.95,-173 3840.95,-173 3840.95,-179 3834.95,-185 3828.95,-185"/>
<text text-anchor="middle" x="3775.45" y="-173" font-family="sans" font-size="10.00">fastqc</text>
<text text-anchor="middle" x="3775.45" y="-162" font-family="sans" font-size="10.00">dirs: trim</text>
<text text-anchor="middle" x="3775.45" y="-151" font-family="sans" font-size="10.00">sample: SRR7798794_1</text>
</g>
<!-- 8&#45;&gt;45 -->
<g id="edge63" class="edge">
<title>8&#45;&gt;45</title>
<path fill="none" stroke="grey" stroke-width="2" d="M3775.45,-220.82C3775.45,-213.2 3775.45,-204 3775.45,-195.32"/>
<polygon fill="grey" stroke="grey" stroke-width="2" points="3778.95,-195.12 3775.45,-185.12 3771.95,-195.12 3778.95,-195.12"/>
</g>
<!-- 46 -->
<g id="node47" class="node">
<title>46</title>
<path fill="none" stroke="#d85656" stroke-width="2" d="M3977.95,-185C3977.95,-185 3870.95,-185 3870.95,-185 3864.95,-185 3858.95,-179 3858.95,-173 3858.95,-173 3858.95,-156 3858.95,-156 3858.95,-150 3864.95,-144 3870.95,-144 3870.95,-144 3977.95,-144 3977.95,-144 3983.95,-144 3989.95,-150 3989.95,-156 3989.95,-156 3989.95,-173 3989.95,-173 3989.95,-179 3983.95,-185 3977.95,-185"/>
<text text-anchor="middle" x="3924.45" y="-173" font-family="sans" font-size="10.00">fastqc</text>
<text text-anchor="middle" x="3924.45" y="-162" font-family="sans" font-size="10.00">dirs: trim</text>
<text text-anchor="middle" x="3924.45" y="-151" font-family="sans" font-size="10.00">sample: SRR7798794_2</text>
</g>
<!-- 8&#45;&gt;46 -->
<g id="edge64" class="edge">
<title>8&#45;&gt;46</title>
<path fill="none" stroke="grey" stroke-width="2" d="M3810.76,-220.82C3829.95,-211.48 3853.99,-199.78 3875.01,-189.55"/>
<polygon fill="grey" stroke="grey" stroke-width="2" points="3876.66,-192.64 3884.12,-185.12 3873.6,-186.35 3876.66,-192.64"/>
</g>
<!-- 9 -->
<g id="node10" class="node">
<title>9</title>
<path fill="none" stroke="#88d856" stroke-width="2" d="M4049.45,-108C4049.45,-108 3987.45,-108 3987.45,-108 3981.45,-108 3975.45,-102 3975.45,-96 3975.45,-96 3975.45,-84 3975.45,-84 3975.45,-78 3981.45,-72 3987.45,-72 3987.45,-72 4049.45,-72 4049.45,-72 4055.45,-72 4061.45,-78 4061.45,-84 4061.45,-84 4061.45,-96 4061.45,-96 4061.45,-102 4055.45,-108 4049.45,-108"/>
<text text-anchor="middle" x="4018.45" y="-87.5" font-family="sans" font-size="10.00">salmon_quant</text>
</g>
<!-- 9&#45;&gt;0 -->
<g id="edge5" class="edge">
<title>9&#45;&gt;0</title>
<path fill="none" stroke="grey" stroke-width="2" d="M4018.45,-71.7C4018.45,-63.98 4018.45,-54.71 4018.45,-46.11"/>
<polygon fill="grey" stroke="grey" stroke-width="2" points="4021.95,-46.1 4018.45,-36.1 4014.95,-46.1 4021.95,-46.1"/>
</g>
<!-- 10 -->
<g id="node11" class="node">
<title>10</title>
<path fill="none" stroke="#56d88a" stroke-width="2" d="M4160.45,-257C4160.45,-257 4064.45,-257 4064.45,-257 4058.45,-257 4052.45,-251 4052.45,-245 4052.45,-245 4052.45,-233 4052.45,-233 4052.45,-227 4058.45,-221 4064.45,-221 4064.45,-221 4160.45,-221 4160.45,-221 4166.45,-221 4172.45,-227 4172.45,-233 4172.45,-233 4172.45,-245 4172.45,-245 4172.45,-251 4166.45,-257 4160.45,-257"/>
<text text-anchor="middle" x="4112.45" y="-242" font-family="sans" font-size="10.00">cutadapt</text>
<text text-anchor="middle" x="4112.45" y="-231" font-family="sans" font-size="10.00">sample: SRR7798793</text>
</g>
<!-- 10&#45;&gt;9 -->
<g id="edge16" class="edge">
<title>10&#45;&gt;9</title>
<path fill="none" stroke="grey" stroke-width="2" d="M4078.12,-220.85C4063.79,-212.02 4048.22,-199.94 4038.45,-185 4025.36,-165 4020.65,-137.95 4019.05,-118"/>
<polygon fill="grey" stroke="grey" stroke-width="2" points="4022.54,-117.79 4018.46,-108.02 4015.56,-118.21 4022.54,-117.79"/>
</g>
<!-- 47 -->
<g id="node48" class="node">
<title>47</title>
<path fill="none" stroke="#d85656" stroke-width="2" d="M4165.95,-185C4165.95,-185 4058.95,-185 4058.95,-185 4052.95,-185 4046.95,-179 4046.95,-173 4046.95,-173 4046.95,-156 4046.95,-156 4046.95,-150 4052.95,-144 4058.95,-144 4058.95,-144 4165.95,-144 4165.95,-144 4171.95,-144 4177.95,-150 4177.95,-156 4177.95,-156 4177.95,-173 4177.95,-173 4177.95,-179 4171.95,-185 4165.95,-185"/>
<text text-anchor="middle" x="4112.45" y="-173" font-family="sans" font-size="10.00">fastqc</text>
<text text-anchor="middle" x="4112.45" y="-162" font-family="sans" font-size="10.00">dirs: trim</text>
<text text-anchor="middle" x="4112.45" y="-151" font-family="sans" font-size="10.00">sample: SRR7798793_1</text>
</g>
<!-- 10&#45;&gt;47 -->
<g id="edge65" class="edge">
<title>10&#45;&gt;47</title>
<path fill="none" stroke="grey" stroke-width="2" d="M4112.45,-220.82C4112.45,-213.2 4112.45,-204 4112.45,-195.32"/>
<polygon fill="grey" stroke="grey" stroke-width="2" points="4115.95,-195.12 4112.45,-185.12 4108.95,-195.12 4115.95,-195.12"/>
</g>
<!-- 48 -->
<g id="node49" class="node">
<title>48</title>
<path fill="none" stroke="#d85656" stroke-width="2" d="M4314.95,-185C4314.95,-185 4207.95,-185 4207.95,-185 4201.95,-185 4195.95,-179 4195.95,-173 4195.95,-173 4195.95,-156 4195.95,-156 4195.95,-150 4201.95,-144 4207.95,-144 4207.95,-144 4314.95,-144 4314.95,-144 4320.95,-144 4326.95,-150 4326.95,-156 4326.95,-156 4326.95,-173 4326.95,-173 4326.95,-179 4320.95,-185 4314.95,-185"/>
<text text-anchor="middle" x="4261.45" y="-173" font-family="sans" font-size="10.00">fastqc</text>
<text text-anchor="middle" x="4261.45" y="-162" font-family="sans" font-size="10.00">dirs: trim</text>
<text text-anchor="middle" x="4261.45" y="-151" font-family="sans" font-size="10.00">sample: SRR7798793_2</text>
</g>
<!-- 10&#45;&gt;48 -->
<g id="edge66" class="edge">
<title>10&#45;&gt;48</title>
<path fill="none" stroke="grey" stroke-width="2" d="M4147.76,-220.82C4166.95,-211.48 4190.99,-199.78 4212.01,-189.55"/>
<polygon fill="grey" stroke="grey" stroke-width="2" points="4213.66,-192.64 4221.12,-185.12 4210.6,-186.35 4213.66,-192.64"/>
</g>
<!-- 11 -->
<g id="node12" class="node">
<title>11</title>
<path fill="none" stroke="#88d856" stroke-width="2" d="M4764.45,-108C4764.45,-108 4702.45,-108 4702.45,-108 4696.45,-108 4690.45,-102 4690.45,-96 4690.45,-96 4690.45,-84 4690.45,-84 4690.45,-78 4696.45,-72 4702.45,-72 4702.45,-72 4764.45,-72 4764.45,-72 4770.45,-72 4776.45,-78 4776.45,-84 4776.45,-84 4776.45,-96 4776.45,-96 4776.45,-102 4770.45,-108 4764.45,-108"/>
<text text-anchor="middle" x="4733.45" y="-87.5" font-family="sans" font-size="10.00">salmon_quant</text>
</g>
<!-- 11&#45;&gt;0 -->
<g id="edge6" class="edge">
<title>11&#45;&gt;0</title>
<path fill="none" stroke="grey" stroke-width="2" d="M4690.33,-84.78C4560.94,-72.11 4177.41,-34.56 4055.85,-22.66"/>
<polygon fill="grey" stroke="grey" stroke-width="2" points="4055.87,-19.15 4045.57,-21.66 4055.18,-26.11 4055.87,-19.15"/>
</g>
<!-- 12 -->
<g id="node13" class="node">
<title>12</title>
<path fill="none" stroke="#56d88a" stroke-width="2" d="M4607.45,-257C4607.45,-257 4511.45,-257 4511.45,-257 4505.45,-257 4499.45,-251 4499.45,-245 4499.45,-245 4499.45,-233 4499.45,-233 4499.45,-227 4505.45,-221 4511.45,-221 4511.45,-221 4607.45,-221 4607.45,-221 4613.45,-221 4619.45,-227 4619.45,-233 4619.45,-233 4619.45,-245 4619.45,-245 4619.45,-251 4613.45,-257 4607.45,-257"/>
<text text-anchor="middle" x="4559.45" y="-242" font-family="sans" font-size="10.00">cutadapt</text>
<text text-anchor="middle" x="4559.45" y="-231" font-family="sans" font-size="10.00">sample: SRR7798791</text>
</g>
<!-- 12&#45;&gt;11 -->
<g id="edge17" class="edge">
<title>12&#45;&gt;11</title>
<path fill="none" stroke="grey" stroke-width="2" d="M4619.7,-233.31C4665.87,-229.77 4731.17,-224.87 4788.45,-221 4854.08,-216.56 5334.36,-232.91 5379.45,-185 5391.93,-171.73 5391.79,-157.4 5379.45,-144 5369.42,-133.12 4939.45,-104.32 4786.65,-94.41"/>
<polygon fill="grey" stroke="grey" stroke-width="2" points="4786.77,-90.91 4776.56,-93.75 4786.31,-97.89 4786.77,-90.91"/>
</g>
<!-- 49 -->
<g id="node50" class="node">
<title>49</title>
<path fill="none" stroke="#d85656" stroke-width="2" d="M4463.95,-185C4463.95,-185 4356.95,-185 4356.95,-185 4350.95,-185 4344.95,-179 4344.95,-173 4344.95,-173 4344.95,-156 4344.95,-156 4344.95,-150 4350.95,-144 4356.95,-144 4356.95,-144 4463.95,-144 4463.95,-144 4469.95,-144 4475.95,-150 4475.95,-156 4475.95,-156 4475.95,-173 4475.95,-173 4475.95,-179 4469.95,-185 4463.95,-185"/>
<text text-anchor="middle" x="4410.45" y="-173" font-family="sans" font-size="10.00">fastqc</text>
<text text-anchor="middle" x="4410.45" y="-162" font-family="sans" font-size="10.00">dirs: trim</text>
<text text-anchor="middle" x="4410.45" y="-151" font-family="sans" font-size="10.00">sample: SRR7798791_1</text>
</g>
<!-- 12&#45;&gt;49 -->
<g id="edge67" class="edge">
<title>12&#45;&gt;49</title>
<path fill="none" stroke="grey" stroke-width="2" d="M4524.13,-220.82C4504.94,-211.48 4480.9,-199.78 4459.88,-189.55"/>
<polygon fill="grey" stroke="grey" stroke-width="2" points="4461.29,-186.35 4450.77,-185.12 4458.23,-192.64 4461.29,-186.35"/>
</g>
<!-- 50 -->
<g id="node51" class="node">
<title>50</title>
<path fill="none" stroke="#d85656" stroke-width="2" d="M4612.95,-185C4612.95,-185 4505.95,-185 4505.95,-185 4499.95,-185 4493.95,-179 4493.95,-173 4493.95,-173 4493.95,-156 4493.95,-156 4493.95,-150 4499.95,-144 4505.95,-144 4505.95,-144 4612.95,-144 4612.95,-144 4618.95,-144 4624.95,-150 4624.95,-156 4624.95,-156 4624.95,-173 4624.95,-173 4624.95,-179 4618.95,-185 4612.95,-185"/>
<text text-anchor="middle" x="4559.45" y="-173" font-family="sans" font-size="10.00">fastqc</text>
<text text-anchor="middle" x="4559.45" y="-162" font-family="sans" font-size="10.00">dirs: trim</text>
<text text-anchor="middle" x="4559.45" y="-151" font-family="sans" font-size="10.00">sample: SRR7798791_2</text>
</g>
<!-- 12&#45;&gt;50 -->
<g id="edge68" class="edge">
<title>12&#45;&gt;50</title>
<path fill="none" stroke="grey" stroke-width="2" d="M4559.45,-220.82C4559.45,-213.2 4559.45,-204 4559.45,-195.32"/>
<polygon fill="grey" stroke="grey" stroke-width="2" points="4562.95,-195.12 4559.45,-185.12 4555.95,-195.12 4562.95,-195.12"/>
</g>
<!-- 13 -->
<g id="node14" class="node">
<title>13</title>
<path fill="none" stroke="#88d856" stroke-width="2" d="M5134.45,-108C5134.45,-108 5072.45,-108 5072.45,-108 5066.45,-108 5060.45,-102 5060.45,-96 5060.45,-96 5060.45,-84 5060.45,-84 5060.45,-78 5066.45,-72 5072.45,-72 5072.45,-72 5134.45,-72 5134.45,-72 5140.45,-72 5146.45,-78 5146.45,-84 5146.45,-84 5146.45,-96 5146.45,-96 5146.45,-102 5140.45,-108 5134.45,-108"/>
<text text-anchor="middle" x="5103.45" y="-87.5" font-family="sans" font-size="10.00">salmon_quant</text>
</g>
<!-- 13&#45;&gt;0 -->
<g id="edge7" class="edge">
<title>13&#45;&gt;0</title>
<path fill="none" stroke="grey" stroke-width="2" d="M5060.24,-86.21C4883.99,-74.84 4220.9,-32.06 4055.83,-21.41"/>
<polygon fill="grey" stroke="grey" stroke-width="2" points="4055.9,-17.91 4045.69,-20.76 4055.45,-24.89 4055.9,-17.91"/>
</g>
<!-- 14 -->
<g id="node15" class="node">
<title>14</title>
<path fill="none" stroke="#56d88a" stroke-width="2" d="M4905.45,-257C4905.45,-257 4809.45,-257 4809.45,-257 4803.45,-257 4797.45,-251 4797.45,-245 4797.45,-245 4797.45,-233 4797.45,-233 4797.45,-227 4803.45,-221 4809.45,-221 4809.45,-221 4905.45,-221 4905.45,-221 4911.45,-221 4917.45,-227 4917.45,-233 4917.45,-233 4917.45,-245 4917.45,-245 4917.45,-251 4911.45,-257 4905.45,-257"/>
<text text-anchor="middle" x="4857.45" y="-242" font-family="sans" font-size="10.00">cutadapt</text>
<text text-anchor="middle" x="4857.45" y="-231" font-family="sans" font-size="10.00">sample: SRR7798792</text>
</g>
<!-- 14&#45;&gt;13 -->
<g id="edge18" class="edge">
<title>14&#45;&gt;13</title>
<path fill="none" stroke="grey" stroke-width="2" d="M4917.55,-233.16C5056.63,-221.82 5389.44,-193.83 5397.45,-185 5409.69,-171.5 5409.13,-157.98 5397.45,-144 5382.15,-125.71 5237.14,-106.35 5156.65,-96.89"/>
<polygon fill="grey" stroke="grey" stroke-width="2" points="5157.03,-93.41 5146.69,-95.73 5156.22,-100.37 5157.03,-93.41"/>
</g>
<!-- 51 -->
<g id="node52" class="node">
<title>51</title>
<path fill="none" stroke="#d85656" stroke-width="2" d="M4761.95,-185C4761.95,-185 4654.95,-185 4654.95,-185 4648.95,-185 4642.95,-179 4642.95,-173 4642.95,-173 4642.95,-156 4642.95,-156 4642.95,-150 4648.95,-144 4654.95,-144 4654.95,-144 4761.95,-144 4761.95,-144 4767.95,-144 4773.95,-150 4773.95,-156 4773.95,-156 4773.95,-173 4773.95,-173 4773.95,-179 4767.95,-185 4761.95,-185"/>
<text text-anchor="middle" x="4708.45" y="-173" font-family="sans" font-size="10.00">fastqc</text>
<text text-anchor="middle" x="4708.45" y="-162" font-family="sans" font-size="10.00">dirs: trim</text>
<text text-anchor="middle" x="4708.45" y="-151" font-family="sans" font-size="10.00">sample: SRR7798792_1</text>
</g>
<!-- 14&#45;&gt;51 -->
<g id="edge69" class="edge">
<title>14&#45;&gt;51</title>
<path fill="none" stroke="grey" stroke-width="2" d="M4822.13,-220.82C4802.94,-211.48 4778.9,-199.78 4757.88,-189.55"/>
<polygon fill="grey" stroke="grey" stroke-width="2" points="4759.29,-186.35 4748.77,-185.12 4756.23,-192.64 4759.29,-186.35"/>
</g>
<!-- 52 -->
<g id="node53" class="node">
<title>52</title>
<path fill="none" stroke="#d85656" stroke-width="2" d="M4910.95,-185C4910.95,-185 4803.95,-185 4803.95,-185 4797.95,-185 4791.95,-179 4791.95,-173 4791.95,-173 4791.95,-156 4791.95,-156 4791.95,-150 4797.95,-144 4803.95,-144 4803.95,-144 4910.95,-144 4910.95,-144 4916.95,-144 4922.95,-150 4922.95,-156 4922.95,-156 4922.95,-173 4922.95,-173 4922.95,-179 4916.95,-185 4910.95,-185"/>
<text text-anchor="middle" x="4857.45" y="-173" font-family="sans" font-size="10.00">fastqc</text>
<text text-anchor="middle" x="4857.45" y="-162" font-family="sans" font-size="10.00">dirs: trim</text>
<text text-anchor="middle" x="4857.45" y="-151" font-family="sans" font-size="10.00">sample: SRR7798792_2</text>
</g>
<!-- 14&#45;&gt;52 -->
<g id="edge70" class="edge">
<title>14&#45;&gt;52</title>
<path fill="none" stroke="grey" stroke-width="2" d="M4857.45,-220.82C4857.45,-213.2 4857.45,-204 4857.45,-195.32"/>
<polygon fill="grey" stroke="grey" stroke-width="2" points="4860.95,-195.12 4857.45,-185.12 4853.95,-195.12 4860.95,-195.12"/>
</g>
<!-- 15 -->
<g id="node16" class="node">
<title>15</title>
<path fill="none" stroke="#88d856" stroke-width="2" d="M5371.45,-108C5371.45,-108 5309.45,-108 5309.45,-108 5303.45,-108 5297.45,-102 5297.45,-96 5297.45,-96 5297.45,-84 5297.45,-84 5297.45,-78 5303.45,-72 5309.45,-72 5309.45,-72 5371.45,-72 5371.45,-72 5377.45,-72 5383.45,-78 5383.45,-84 5383.45,-84 5383.45,-96 5383.45,-96 5383.45,-102 5377.45,-108 5371.45,-108"/>
<text text-anchor="middle" x="5340.45" y="-87.5" font-family="sans" font-size="10.00">salmon_quant</text>
</g>
<!-- 15&#45;&gt;0 -->
<g id="edge8" class="edge">
<title>15&#45;&gt;0</title>
<path fill="none" stroke="grey" stroke-width="2" d="M5297.13,-84.46C5259.67,-80.67 5204.03,-75.36 5155.45,-72 4724.11,-42.14 4199.52,-24.61 4056.17,-20.14"/>
<polygon fill="grey" stroke="grey" stroke-width="2" points="4055.85,-16.63 4045.75,-19.82 4055.64,-23.63 4055.85,-16.63"/>
</g>
<!-- 16 -->
<g id="node17" class="node">
<title>16</title>
<path fill="none" stroke="#56d88a" stroke-width="2" d="M5203.45,-257C5203.45,-257 5107.45,-257 5107.45,-257 5101.45,-257 5095.45,-251 5095.45,-245 5095.45,-245 5095.45,-233 5095.45,-233 5095.45,-227 5101.45,-221 5107.45,-221 5107.45,-221 5203.45,-221 5203.45,-221 5209.45,-221 5215.45,-227 5215.45,-233 5215.45,-233 5215.45,-245 5215.45,-245 5215.45,-251 5209.45,-257 5203.45,-257"/>
<text text-anchor="middle" x="5155.45" y="-242" font-family="sans" font-size="10.00">cutadapt</text>
<text text-anchor="middle" x="5155.45" y="-231" font-family="sans" font-size="10.00">sample: SRR7798790</text>
</g>
<!-- 16&#45;&gt;15 -->
<g id="edge19" class="edge">
<title>16&#45;&gt;15</title>
<path fill="none" stroke="grey" stroke-width="2" d="M5215.59,-235.98C5293.02,-231.97 5421.11,-220.08 5450.45,-185 5462.14,-171.02 5460.14,-159.43 5450.45,-144 5437.68,-123.67 5414.68,-110.96 5393,-103.1"/>
<polygon fill="grey" stroke="grey" stroke-width="2" points="5394.1,-99.77 5383.5,-99.92 5391.88,-106.41 5394.1,-99.77"/>
</g>
<!-- 53 -->
<g id="node54" class="node">
<title>53</title>
<path fill="none" stroke="#d85656" stroke-width="2" d="M5208.95,-185C5208.95,-185 5101.95,-185 5101.95,-185 5095.95,-185 5089.95,-179 5089.95,-173 5089.95,-173 5089.95,-156 5089.95,-156 5089.95,-150 5095.95,-144 5101.95,-144 5101.95,-144 5208.95,-144 5208.95,-144 5214.95,-144 5220.95,-150 5220.95,-156 5220.95,-156 5220.95,-173 5220.95,-173 5220.95,-179 5214.95,-185 5208.95,-185"/>
<text text-anchor="middle" x="5155.45" y="-173" font-family="sans" font-size="10.00">fastqc</text>
<text text-anchor="middle" x="5155.45" y="-162" font-family="sans" font-size="10.00">dirs: trim</text>
<text text-anchor="middle" x="5155.45" y="-151" font-family="sans" font-size="10.00">sample: SRR7798790_1</text>
</g>
<!-- 16&#45;&gt;53 -->
<g id="edge71" class="edge">
<title>16&#45;&gt;53</title>
<path fill="none" stroke="grey" stroke-width="2" d="M5155.45,-220.82C5155.45,-213.2 5155.45,-204 5155.45,-195.32"/>
<polygon fill="grey" stroke="grey" stroke-width="2" points="5158.95,-195.12 5155.45,-185.12 5151.95,-195.12 5158.95,-195.12"/>
</g>
<!-- 54 -->
<g id="node55" class="node">
<title>54</title>
<path fill="none" stroke="#d85656" stroke-width="2" d="M5059.95,-185C5059.95,-185 4952.95,-185 4952.95,-185 4946.95,-185 4940.95,-179 4940.95,-173 4940.95,-173 4940.95,-156 4940.95,-156 4940.95,-150 4946.95,-144 4952.95,-144 4952.95,-144 5059.95,-144 5059.95,-144 5065.95,-144 5071.95,-150 5071.95,-156 5071.95,-156 5071.95,-173 5071.95,-173 5071.95,-179 5065.95,-185 5059.95,-185"/>
<text text-anchor="middle" x="5006.45" y="-173" font-family="sans" font-size="10.00">fastqc</text>
<text text-anchor="middle" x="5006.45" y="-162" font-family="sans" font-size="10.00">dirs: trim</text>
<text text-anchor="middle" x="5006.45" y="-151" font-family="sans" font-size="10.00">sample: SRR7798790_2</text>
</g>
<!-- 16&#45;&gt;54 -->
<g id="edge72" class="edge">
<title>16&#45;&gt;54</title>
<path fill="none" stroke="grey" stroke-width="2" d="M5120.13,-220.82C5100.94,-211.48 5076.9,-199.78 5055.88,-189.55"/>
<polygon fill="grey" stroke="grey" stroke-width="2" points="5057.29,-186.35 5046.77,-185.12 5054.23,-192.64 5057.29,-186.35"/>
</g>
<!-- 17 -->
<g id="node18" class="node">
<title>17</title>
<path fill="none" stroke="#88d856" stroke-width="2" d="M5584.45,-108C5584.45,-108 5522.45,-108 5522.45,-108 5516.45,-108 5510.45,-102 5510.45,-96 5510.45,-96 5510.45,-84 5510.45,-84 5510.45,-78 5516.45,-72 5522.45,-72 5522.45,-72 5584.45,-72 5584.45,-72 5590.45,-72 5596.45,-78 5596.45,-84 5596.45,-84 5596.45,-96 5596.45,-96 5596.45,-102 5590.45,-108 5584.45,-108"/>
<text text-anchor="middle" x="5553.45" y="-87.5" font-family="sans" font-size="10.00">salmon_quant</text>
</g>
<!-- 17&#45;&gt;0 -->
<g id="edge9" class="edge">
<title>17&#45;&gt;0</title>
<path fill="none" stroke="grey" stroke-width="2" d="M5510.12,-83.63C5477.75,-79.82 5432.39,-74.88 5392.45,-72 4862.93,-33.87 4216.5,-21.99 4055.9,-19.53"/>
<polygon fill="grey" stroke="grey" stroke-width="2" points="4055.65,-16.03 4045.6,-19.37 4055.55,-23.02 4055.65,-16.03"/>
</g>
<!-- 18 -->
<g id="node19" class="node">
<title>18</title>
<path fill="none" stroke="#56d88a" stroke-width="2" d="M5616.45,-257C5616.45,-257 5520.45,-257 5520.45,-257 5514.45,-257 5508.45,-251 5508.45,-245 5508.45,-245 5508.45,-233 5508.45,-233 5508.45,-227 5514.45,-221 5520.45,-221 5520.45,-221 5616.45,-221 5616.45,-221 5622.45,-221 5628.45,-227 5628.45,-233 5628.45,-233 5628.45,-245 5628.45,-245 5628.45,-251 5622.45,-257 5616.45,-257"/>
<text text-anchor="middle" x="5568.45" y="-242" font-family="sans" font-size="10.00">cutadapt</text>
<text text-anchor="middle" x="5568.45" y="-231" font-family="sans" font-size="10.00">sample: SRR7798789</text>
</g>
<!-- 18&#45;&gt;17 -->
<g id="edge20" class="edge">
<title>18&#45;&gt;17</title>
<path fill="none" stroke="grey" stroke-width="2" d="M5606.33,-220.91C5620.67,-212.33 5635.45,-200.43 5643.45,-185 5651.82,-168.82 5652.49,-159.82 5643.45,-144 5635.02,-129.27 5620.73,-118.22 5605.99,-110.14"/>
<polygon fill="grey" stroke="grey" stroke-width="2" points="5607.3,-106.88 5596.8,-105.48 5604.14,-113.13 5607.3,-106.88"/>
</g>
<!-- 55 -->
<g id="node56" class="node">
<title>55</title>
<path fill="none" stroke="#d85656" stroke-width="2" d="M5357.95,-185C5357.95,-185 5250.95,-185 5250.95,-185 5244.95,-185 5238.95,-179 5238.95,-173 5238.95,-173 5238.95,-156 5238.95,-156 5238.95,-150 5244.95,-144 5250.95,-144 5250.95,-144 5357.95,-144 5357.95,-144 5363.95,-144 5369.95,-150 5369.95,-156 5369.95,-156 5369.95,-173 5369.95,-173 5369.95,-179 5363.95,-185 5357.95,-185"/>
<text text-anchor="middle" x="5304.45" y="-173" font-family="sans" font-size="10.00">fastqc</text>
<text text-anchor="middle" x="5304.45" y="-162" font-family="sans" font-size="10.00">dirs: trim</text>
<text text-anchor="middle" x="5304.45" y="-151" font-family="sans" font-size="10.00">sample: SRR7798789_1</text>
</g>
<!-- 18&#45;&gt;55 -->
<g id="edge73" class="edge">
<title>18&#45;&gt;55</title>
<path fill="none" stroke="grey" stroke-width="2" d="M5508.21,-221.46C5470.11,-210.99 5420.55,-197.38 5379.85,-186.21"/>
<polygon fill="grey" stroke="grey" stroke-width="2" points="5380.54,-182.77 5369.97,-183.49 5378.69,-189.52 5380.54,-182.77"/>
</g>
<!-- 56 -->
<g id="node57" class="node">
<title>56</title>
<path fill="none" stroke="#d85656" stroke-width="2" d="M5621.95,-185C5621.95,-185 5514.95,-185 5514.95,-185 5508.95,-185 5502.95,-179 5502.95,-173 5502.95,-173 5502.95,-156 5502.95,-156 5502.95,-150 5508.95,-144 5514.95,-144 5514.95,-144 5621.95,-144 5621.95,-144 5627.95,-144 5633.95,-150 5633.95,-156 5633.95,-156 5633.95,-173 5633.95,-173 5633.95,-179 5627.95,-185 5621.95,-185"/>
<text text-anchor="middle" x="5568.45" y="-173" font-family="sans" font-size="10.00">fastqc</text>
<text text-anchor="middle" x="5568.45" y="-162" font-family="sans" font-size="10.00">dirs: trim</text>
<text text-anchor="middle" x="5568.45" y="-151" font-family="sans" font-size="10.00">sample: SRR7798789_2</text>
</g>
<!-- 18&#45;&gt;56 -->
<g id="edge74" class="edge">
<title>18&#45;&gt;56</title>
<path fill="none" stroke="grey" stroke-width="2" d="M5568.45,-220.82C5568.45,-213.2 5568.45,-204 5568.45,-195.32"/>
<polygon fill="grey" stroke="grey" stroke-width="2" points="5571.95,-195.12 5568.45,-185.12 5564.95,-195.12 5571.95,-195.12"/>
</g>
<!-- 19 -->
<g id="node20" class="node">
<title>19</title>
<path fill="none" stroke="#56c1d8" stroke-width="2" d="M1440.45,-108C1440.45,-108 1410.45,-108 1410.45,-108 1404.45,-108 1398.45,-102 1398.45,-96 1398.45,-96 1398.45,-84 1398.45,-84 1398.45,-78 1404.45,-72 1410.45,-72 1410.45,-72 1440.45,-72 1440.45,-72 1446.45,-72 1452.45,-78 1452.45,-84 1452.45,-84 1452.45,-96 1452.45,-96 1452.45,-102 1446.45,-108 1440.45,-108"/>
<text text-anchor="middle" x="1425.45" y="-87.5" font-family="sans" font-size="10.00">multiqc</text>
</g>
<!-- 19&#45;&gt;0 -->
<g id="edge10" class="edge">
<title>19&#45;&gt;0</title>
<path fill="none" stroke="grey" stroke-width="2" d="M1452.81,-88.26C1708.91,-81.35 3682.75,-28.06 3980.8,-20.02"/>
<polygon fill="grey" stroke="grey" stroke-width="2" points="3981.17,-23.51 3991.08,-19.74 3980.99,-16.51 3981.17,-23.51"/>
</g>
<!-- 20 -->
<g id="node21" class="node">
<title>20</title>
<path fill="none" stroke="#d85656" stroke-width="2" stroke-dasharray="5,2" d="M2074.95,-185C2074.95,-185 1967.95,-185 1967.95,-185 1961.95,-185 1955.95,-179 1955.95,-173 1955.95,-173 1955.95,-156 1955.95,-156 1955.95,-150 1961.95,-144 1967.95,-144 1967.95,-144 2074.95,-144 2074.95,-144 2080.95,-144 2086.95,-150 2086.95,-156 2086.95,-156 2086.95,-173 2086.95,-173 2086.95,-179 2080.95,-185 2074.95,-185"/>
<text text-anchor="middle" x="2021.45" y="-173" font-family="sans" font-size="10.00">fastqc</text>
<text text-anchor="middle" x="2021.45" y="-162" font-family="sans" font-size="10.00">dirs: seqs</text>
<text text-anchor="middle" x="2021.45" y="-151" font-family="sans" font-size="10.00">sample: SRR7798788_1</text>
</g>
<!-- 20&#45;&gt;19 -->
<g id="edge21" class="edge">
<title>20&#45;&gt;19</title>
<path fill="none" stroke="grey" stroke-width="2" d="M1955.8,-145.63C1952.98,-145.05 1950.19,-144.5 1947.45,-144 1767.41,-111.35 1548.52,-97.31 1462.59,-92.77"/>
<polygon fill="grey" stroke="grey" stroke-width="2" points="1462.72,-89.27 1452.55,-92.25 1462.35,-96.26 1462.72,-89.27"/>
</g>
<!-- 21 -->
<g id="node22" class="node">
<title>21</title>
<path fill="none" stroke="#d85656" stroke-width="2" d="M2223.95,-185C2223.95,-185 2116.95,-185 2116.95,-185 2110.95,-185 2104.95,-179 2104.95,-173 2104.95,-173 2104.95,-156 2104.95,-156 2104.95,-150 2110.95,-144 2116.95,-144 2116.95,-144 2223.95,-144 2223.95,-144 2229.95,-144 2235.95,-150 2235.95,-156 2235.95,-156 2235.95,-173 2235.95,-173 2235.95,-179 2229.95,-185 2223.95,-185"/>
<text text-anchor="middle" x="2170.45" y="-173" font-family="sans" font-size="10.00">fastqc</text>
<text text-anchor="middle" x="2170.45" y="-162" font-family="sans" font-size="10.00">dirs: seqs</text>
<text text-anchor="middle" x="2170.45" y="-151" font-family="sans" font-size="10.00">sample: SRR7798788_2</text>
</g>
<!-- 21&#45;&gt;19 -->
<g id="edge22" class="edge">
<title>21&#45;&gt;19</title>
<path fill="none" stroke="grey" stroke-width="2" d="M2104.81,-145.55C2101.99,-144.99 2099.2,-144.47 2096.45,-144 1857.22,-103.37 1564.6,-93.78 1462.61,-91.61"/>
<polygon fill="grey" stroke="grey" stroke-width="2" points="1462.57,-88.11 1452.51,-91.41 1462.43,-95.11 1462.57,-88.11"/>
</g>
<!-- 22 -->
<g id="node23" class="node">
<title>22</title>
<path fill="none" stroke="#d85656" stroke-width="2" d="M2372.95,-185C2372.95,-185 2265.95,-185 2265.95,-185 2259.95,-185 2253.95,-179 2253.95,-173 2253.95,-173 2253.95,-156 2253.95,-156 2253.95,-150 2259.95,-144 2265.95,-144 2265.95,-144 2372.95,-144 2372.95,-144 2378.95,-144 2384.95,-150 2384.95,-156 2384.95,-156 2384.95,-173 2384.95,-173 2384.95,-179 2378.95,-185 2372.95,-185"/>
<text text-anchor="middle" x="2319.45" y="-173" font-family="sans" font-size="10.00">fastqc</text>
<text text-anchor="middle" x="2319.45" y="-162" font-family="sans" font-size="10.00">dirs: seqs</text>
<text text-anchor="middle" x="2319.45" y="-151" font-family="sans" font-size="10.00">sample: SRR7798796_1</text>
</g>
<!-- 22&#45;&gt;19 -->
<g id="edge23" class="edge">
<title>22&#45;&gt;19</title>
<path fill="none" stroke="grey" stroke-width="2" d="M2253.82,-145.5C2251,-144.95 2248.2,-144.45 2245.45,-144 1946.41,-95.4 1579.2,-90.96 1462.72,-90.86"/>
<polygon fill="grey" stroke="grey" stroke-width="2" points="1462.56,-87.36 1452.56,-90.86 1462.56,-94.36 1462.56,-87.36"/>
</g>
<!-- 23 -->
<g id="node24" class="node">
<title>23</title>
<path fill="none" stroke="#d85656" stroke-width="2" d="M2521.95,-185C2521.95,-185 2414.95,-185 2414.95,-185 2408.95,-185 2402.95,-179 2402.95,-173 2402.95,-173 2402.95,-156 2402.95,-156 2402.95,-150 2408.95,-144 2414.95,-144 2414.95,-144 2521.95,-144 2521.95,-144 2527.95,-144 2533.95,-150 2533.95,-156 2533.95,-156 2533.95,-173 2533.95,-173 2533.95,-179 2527.95,-185 2521.95,-185"/>
<text text-anchor="middle" x="2468.45" y="-173" font-family="sans" font-size="10.00">fastqc</text>
<text text-anchor="middle" x="2468.45" y="-162" font-family="sans" font-size="10.00">dirs: seqs</text>
<text text-anchor="middle" x="2468.45" y="-151" font-family="sans" font-size="10.00">sample: SRR7798796_2</text>
</g>
<!-- 23&#45;&gt;19 -->
<g id="edge24" class="edge">
<title>23&#45;&gt;19</title>
<path fill="none" stroke="grey" stroke-width="2" d="M2402.83,-145.47C2400,-144.93 2397.2,-144.43 2394.45,-144 2209.97,-114.96 1618.38,-96.47 1463.08,-92.04"/>
<polygon fill="grey" stroke="grey" stroke-width="2" points="1462.76,-88.53 1452.66,-91.74 1462.56,-95.52 1462.76,-88.53"/>
</g>
<!-- 24 -->
<g id="node25" class="node">
<title>24</title>
<path fill="none" stroke="#d85656" stroke-width="2" d="M2670.95,-185C2670.95,-185 2563.95,-185 2563.95,-185 2557.95,-185 2551.95,-179 2551.95,-173 2551.95,-173 2551.95,-156 2551.95,-156 2551.95,-150 2557.95,-144 2563.95,-144 2563.95,-144 2670.95,-144 2670.95,-144 2676.95,-144 2682.95,-150 2682.95,-156 2682.95,-156 2682.95,-173 2682.95,-173 2682.95,-179 2676.95,-185 2670.95,-185"/>
<text text-anchor="middle" x="2617.45" y="-173" font-family="sans" font-size="10.00">fastqc</text>
<text text-anchor="middle" x="2617.45" y="-162" font-family="sans" font-size="10.00">dirs: seqs</text>
<text text-anchor="middle" x="2617.45" y="-151" font-family="sans" font-size="10.00">sample: SRR7798795_1</text>
</g>
<!-- 24&#45;&gt;19 -->
<g id="edge25" class="edge">
<title>24&#45;&gt;19</title>
<path fill="none" stroke="grey" stroke-width="2" d="M2551.83,-145.44C2549.01,-144.91 2546.2,-144.42 2543.45,-144 2328.15,-110.91 1632.51,-95.13 1462.97,-91.72"/>
<polygon fill="grey" stroke="grey" stroke-width="2" points="1462.86,-88.22 1452.79,-91.52 1462.72,-95.21 1462.86,-88.22"/>
</g>
<!-- 25 -->
<g id="node26" class="node">
<title>25</title>
<path fill="none" stroke="#d85656" stroke-width="2" d="M137.95,-185C137.95,-185 30.95,-185 30.95,-185 24.95,-185 18.95,-179 18.95,-173 18.95,-173 18.95,-156 18.95,-156 18.95,-150 24.95,-144 30.95,-144 30.95,-144 137.95,-144 137.95,-144 143.95,-144 149.95,-150 149.95,-156 149.95,-156 149.95,-173 149.95,-173 149.95,-179 143.95,-185 137.95,-185"/>
<text text-anchor="middle" x="84.45" y="-173" font-family="sans" font-size="10.00">fastqc</text>
<text text-anchor="middle" x="84.45" y="-162" font-family="sans" font-size="10.00">dirs: seqs</text>
<text text-anchor="middle" x="84.45" y="-151" font-family="sans" font-size="10.00">sample: SRR7798795_2</text>
</g>
<!-- 25&#45;&gt;19 -->
<g id="edge26" class="edge">
<title>25&#45;&gt;19</title>
<path fill="none" stroke="grey" stroke-width="2" d="M150.06,-145.42C152.88,-144.9 155.69,-144.42 158.45,-144 282.63,-125.27 1192,-97.82 1388.2,-92.08"/>
<polygon fill="grey" stroke="grey" stroke-width="2" points="1388.4,-95.57 1398.3,-91.78 1388.2,-88.58 1388.4,-95.57"/>
</g>
<!-- 26 -->
<g id="node27" class="node">
<title>26</title>
<path fill="none" stroke="#d85656" stroke-width="2" d="M286.95,-185C286.95,-185 179.95,-185 179.95,-185 173.95,-185 167.95,-179 167.95,-173 167.95,-173 167.95,-156 167.95,-156 167.95,-150 173.95,-144 179.95,-144 179.95,-144 286.95,-144 286.95,-144 292.95,-144 298.95,-150 298.95,-156 298.95,-156 298.95,-173 298.95,-173 298.95,-179 292.95,-185 286.95,-185"/>
<text text-anchor="middle" x="233.45" y="-173" font-family="sans" font-size="10.00">fastqc</text>
<text text-anchor="middle" x="233.45" y="-162" font-family="sans" font-size="10.00">dirs: seqs</text>
<text text-anchor="middle" x="233.45" y="-151" font-family="sans" font-size="10.00">sample: SRR7798794_1</text>
</g>
<!-- 26&#45;&gt;19 -->
<g id="edge27" class="edge">
<title>26&#45;&gt;19</title>
<path fill="none" stroke="grey" stroke-width="2" d="M299.06,-145.44C301.88,-144.91 304.69,-144.42 307.45,-144 522.74,-110.91 1218.38,-95.13 1387.93,-91.72"/>
<polygon fill="grey" stroke="grey" stroke-width="2" points="1388.17,-95.21 1398.1,-91.52 1388.03,-88.22 1388.17,-95.21"/>
</g>
<!-- 27 -->
<g id="node28" class="node">
<title>27</title>
<path fill="none" stroke="#d85656" stroke-width="2" d="M435.95,-185C435.95,-185 328.95,-185 328.95,-185 322.95,-185 316.95,-179 316.95,-173 316.95,-173 316.95,-156 316.95,-156 316.95,-150 322.95,-144 328.95,-144 328.95,-144 435.95,-144 435.95,-144 441.95,-144 447.95,-150 447.95,-156 447.95,-156 447.95,-173 447.95,-173 447.95,-179 441.95,-185 435.95,-185"/>
<text text-anchor="middle" x="382.45" y="-173" font-family="sans" font-size="10.00">fastqc</text>
<text text-anchor="middle" x="382.45" y="-162" font-family="sans" font-size="10.00">dirs: seqs</text>
<text text-anchor="middle" x="382.45" y="-151" font-family="sans" font-size="10.00">sample: SRR7798794_2</text>
</g>
<!-- 27&#45;&gt;19 -->
<g id="edge28" class="edge">
<title>27&#45;&gt;19</title>
<path fill="none" stroke="grey" stroke-width="2" d="M448.07,-145.47C450.89,-144.93 453.69,-144.43 456.45,-144 640.92,-114.96 1232.51,-96.47 1387.81,-92.04"/>
<polygon fill="grey" stroke="grey" stroke-width="2" points="1388.33,-95.52 1398.23,-91.74 1388.14,-88.53 1388.33,-95.52"/>
</g>
<!-- 28 -->
<g id="node29" class="node">
<title>28</title>
<path fill="none" stroke="#d85656" stroke-width="2" d="M584.95,-185C584.95,-185 477.95,-185 477.95,-185 471.95,-185 465.95,-179 465.95,-173 465.95,-173 465.95,-156 465.95,-156 465.95,-150 471.95,-144 477.95,-144 477.95,-144 584.95,-144 584.95,-144 590.95,-144 596.95,-150 596.95,-156 596.95,-156 596.95,-173 596.95,-173 596.95,-179 590.95,-185 584.95,-185"/>
<text text-anchor="middle" x="531.45" y="-173" font-family="sans" font-size="10.00">fastqc</text>
<text text-anchor="middle" x="531.45" y="-162" font-family="sans" font-size="10.00">dirs: seqs</text>
<text text-anchor="middle" x="531.45" y="-151" font-family="sans" font-size="10.00">sample: SRR7798793_1</text>
</g>
<!-- 28&#45;&gt;19 -->
<g id="edge29" class="edge">
<title>28&#45;&gt;19</title>
<path fill="none" stroke="grey" stroke-width="2" d="M597.07,-145.5C599.89,-144.95 602.69,-144.45 605.45,-144 904.49,-95.4 1271.69,-90.96 1388.17,-90.86"/>
<polygon fill="grey" stroke="grey" stroke-width="2" points="1388.33,-94.36 1398.33,-90.86 1388.34,-87.36 1388.33,-94.36"/>
</g>
<!-- 29 -->
<g id="node30" class="node">
<title>29</title>
<path fill="none" stroke="#d85656" stroke-width="2" d="M733.95,-185C733.95,-185 626.95,-185 626.95,-185 620.95,-185 614.95,-179 614.95,-173 614.95,-173 614.95,-156 614.95,-156 614.95,-150 620.95,-144 626.95,-144 626.95,-144 733.95,-144 733.95,-144 739.95,-144 745.95,-150 745.95,-156 745.95,-156 745.95,-173 745.95,-173 745.95,-179 739.95,-185 733.95,-185"/>
<text text-anchor="middle" x="680.45" y="-173" font-family="sans" font-size="10.00">fastqc</text>
<text text-anchor="middle" x="680.45" y="-162" font-family="sans" font-size="10.00">dirs: seqs</text>
<text text-anchor="middle" x="680.45" y="-151" font-family="sans" font-size="10.00">sample: SRR7798793_2</text>
</g>
<!-- 29&#45;&gt;19 -->
<g id="edge30" class="edge">
<title>29&#45;&gt;19</title>
<path fill="none" stroke="grey" stroke-width="2" d="M746.08,-145.55C748.9,-144.99 751.7,-144.47 754.45,-144 993.67,-103.37 1286.29,-93.78 1388.28,-91.61"/>
<polygon fill="grey" stroke="grey" stroke-width="2" points="1388.46,-95.11 1398.39,-91.41 1388.32,-88.11 1388.46,-95.11"/>
</g>
<!-- 30 -->
<g id="node31" class="node">
<title>30</title>
<path fill="none" stroke="#d85656" stroke-width="2" d="M882.95,-185C882.95,-185 775.95,-185 775.95,-185 769.95,-185 763.95,-179 763.95,-173 763.95,-173 763.95,-156 763.95,-156 763.95,-150 769.95,-144 775.95,-144 775.95,-144 882.95,-144 882.95,-144 888.95,-144 894.95,-150 894.95,-156 894.95,-156 894.95,-173 894.95,-173 894.95,-179 888.95,-185 882.95,-185"/>
<text text-anchor="middle" x="829.45" y="-173" font-family="sans" font-size="10.00">fastqc</text>
<text text-anchor="middle" x="829.45" y="-162" font-family="sans" font-size="10.00">dirs: seqs</text>
<text text-anchor="middle" x="829.45" y="-151" font-family="sans" font-size="10.00">sample: SRR7798791_1</text>
</g>
<!-- 30&#45;&gt;19 -->
<g id="edge31" class="edge">
<title>30&#45;&gt;19</title>
<path fill="none" stroke="grey" stroke-width="2" d="M895.09,-145.63C897.91,-145.05 900.7,-144.5 903.45,-144 1083.48,-111.35 1302.37,-97.31 1388.3,-92.77"/>
<polygon fill="grey" stroke="grey" stroke-width="2" points="1388.54,-96.26 1398.34,-92.25 1388.18,-89.27 1388.54,-96.26"/>
</g>
<!-- 31 -->
<g id="node32" class="node">
<title>31</title>
<path fill="none" stroke="#d85656" stroke-width="2" d="M1031.95,-185C1031.95,-185 924.95,-185 924.95,-185 918.95,-185 912.95,-179 912.95,-173 912.95,-173 912.95,-156 912.95,-156 912.95,-150 918.95,-144 924.95,-144 924.95,-144 1031.95,-144 1031.95,-144 1037.95,-144 1043.95,-150 1043.95,-156 1043.95,-156 1043.95,-173 1043.95,-173 1043.95,-179 1037.95,-185 1031.95,-185"/>
<text text-anchor="middle" x="978.45" y="-173" font-family="sans" font-size="10.00">fastqc</text>
<text text-anchor="middle" x="978.45" y="-162" font-family="sans" font-size="10.00">dirs: seqs</text>
<text text-anchor="middle" x="978.45" y="-151" font-family="sans" font-size="10.00">sample: SRR7798791_2</text>
</g>
<!-- 31&#45;&gt;19 -->
<g id="edge32" class="edge">
<title>31&#45;&gt;19</title>
<path fill="none" stroke="grey" stroke-width="2" d="M1044.12,-145.77C1046.93,-145.15 1049.71,-144.55 1052.45,-144 1174.16,-119.4 1320.48,-102.14 1387.98,-94.86"/>
<polygon fill="grey" stroke="grey" stroke-width="2" points="1388.54,-98.32 1398.12,-93.78 1387.8,-91.36 1388.54,-98.32"/>
</g>
<!-- 32 -->
<g id="node33" class="node">
<title>32</title>
<path fill="none" stroke="#d85656" stroke-width="2" d="M1180.95,-185C1180.95,-185 1073.95,-185 1073.95,-185 1067.95,-185 1061.95,-179 1061.95,-173 1061.95,-173 1061.95,-156 1061.95,-156 1061.95,-150 1067.95,-144 1073.95,-144 1073.95,-144 1180.95,-144 1180.95,-144 1186.95,-144 1192.95,-150 1192.95,-156 1192.95,-156 1192.95,-173 1192.95,-173 1192.95,-179 1186.95,-185 1180.95,-185"/>
<text text-anchor="middle" x="1127.45" y="-173" font-family="sans" font-size="10.00">fastqc</text>
<text text-anchor="middle" x="1127.45" y="-162" font-family="sans" font-size="10.00">dirs: seqs</text>
<text text-anchor="middle" x="1127.45" y="-151" font-family="sans" font-size="10.00">sample: SRR7798792_1</text>
</g>
<!-- 32&#45;&gt;19 -->
<g id="edge33" class="edge">
<title>32&#45;&gt;19</title>
<path fill="none" stroke="grey" stroke-width="2" d="M1193.19,-146.08C1195.98,-145.37 1198.74,-144.68 1201.45,-144 1267.09,-127.59 1343.88,-109.7 1388.37,-99.47"/>
<polygon fill="grey" stroke="grey" stroke-width="2" points="1389.19,-102.87 1398.15,-97.22 1387.62,-96.05 1389.19,-102.87"/>
</g>
<!-- 33 -->
<g id="node34" class="node">
<title>33</title>
<path fill="none" stroke="#d85656" stroke-width="2" d="M1329.95,-185C1329.95,-185 1222.95,-185 1222.95,-185 1216.95,-185 1210.95,-179 1210.95,-173 1210.95,-173 1210.95,-156 1210.95,-156 1210.95,-150 1216.95,-144 1222.95,-144 1222.95,-144 1329.95,-144 1329.95,-144 1335.95,-144 1341.95,-150 1341.95,-156 1341.95,-156 1341.95,-173 1341.95,-173 1341.95,-179 1335.95,-185 1329.95,-185"/>
<text text-anchor="middle" x="1276.45" y="-173" font-family="sans" font-size="10.00">fastqc</text>
<text text-anchor="middle" x="1276.45" y="-162" font-family="sans" font-size="10.00">dirs: seqs</text>
<text text-anchor="middle" x="1276.45" y="-151" font-family="sans" font-size="10.00">sample: SRR7798792_2</text>
</g>
<!-- 33&#45;&gt;19 -->
<g id="edge34" class="edge">
<title>33&#45;&gt;19</title>
<path fill="none" stroke="grey" stroke-width="2" d="M1316.77,-143.88C1339.29,-132.92 1367.13,-119.37 1389,-108.73"/>
<polygon fill="grey" stroke="grey" stroke-width="2" points="1390.82,-111.74 1398.28,-104.22 1387.75,-105.45 1390.82,-111.74"/>
</g>
<!-- 34 -->
<g id="node35" class="node">
<title>34</title>
<path fill="none" stroke="#d85656" stroke-width="2" d="M1478.95,-185C1478.95,-185 1371.95,-185 1371.95,-185 1365.95,-185 1359.95,-179 1359.95,-173 1359.95,-173 1359.95,-156 1359.95,-156 1359.95,-150 1365.95,-144 1371.95,-144 1371.95,-144 1478.95,-144 1478.95,-144 1484.95,-144 1490.95,-150 1490.95,-156 1490.95,-156 1490.95,-173 1490.95,-173 1490.95,-179 1484.95,-185 1478.95,-185"/>
<text text-anchor="middle" x="1425.45" y="-173" font-family="sans" font-size="10.00">fastqc</text>
<text text-anchor="middle" x="1425.45" y="-162" font-family="sans" font-size="10.00">dirs: seqs</text>
<text text-anchor="middle" x="1425.45" y="-151" font-family="sans" font-size="10.00">sample: SRR7798790_1</text>
</g>
<!-- 34&#45;&gt;19 -->
<g id="edge35" class="edge">
<title>34&#45;&gt;19</title>
<path fill="none" stroke="grey" stroke-width="2" d="M1425.45,-143.69C1425.45,-135.91 1425.45,-126.84 1425.45,-118.45"/>
<polygon fill="grey" stroke="grey" stroke-width="2" points="1428.95,-118.32 1425.45,-108.32 1421.95,-118.32 1428.95,-118.32"/>
</g>
<!-- 35 -->
<g id="node36" class="node">
<title>35</title>
<path fill="none" stroke="#d85656" stroke-width="2" d="M1627.95,-185C1627.95,-185 1520.95,-185 1520.95,-185 1514.95,-185 1508.95,-179 1508.95,-173 1508.95,-173 1508.95,-156 1508.95,-156 1508.95,-150 1514.95,-144 1520.95,-144 1520.95,-144 1627.95,-144 1627.95,-144 1633.95,-144 1639.95,-150 1639.95,-156 1639.95,-156 1639.95,-173 1639.95,-173 1639.95,-179 1633.95,-185 1627.95,-185"/>
<text text-anchor="middle" x="1574.45" y="-173" font-family="sans" font-size="10.00">fastqc</text>
<text text-anchor="middle" x="1574.45" y="-162" font-family="sans" font-size="10.00">dirs: seqs</text>
<text text-anchor="middle" x="1574.45" y="-151" font-family="sans" font-size="10.00">sample: SRR7798790_2</text>
</g>
<!-- 35&#45;&gt;19 -->
<g id="edge36" class="edge">
<title>35&#45;&gt;19</title>
<path fill="none" stroke="grey" stroke-width="2" d="M1534.12,-143.88C1511.6,-132.92 1483.76,-119.37 1461.89,-108.73"/>
<polygon fill="grey" stroke="grey" stroke-width="2" points="1463.14,-105.45 1452.61,-104.22 1460.08,-111.74 1463.14,-105.45"/>
</g>
<!-- 36 -->
<g id="node37" class="node">
<title>36</title>
<path fill="none" stroke="#d85656" stroke-width="2" d="M1776.95,-185C1776.95,-185 1669.95,-185 1669.95,-185 1663.95,-185 1657.95,-179 1657.95,-173 1657.95,-173 1657.95,-156 1657.95,-156 1657.95,-150 1663.95,-144 1669.95,-144 1669.95,-144 1776.95,-144 1776.95,-144 1782.95,-144 1788.95,-150 1788.95,-156 1788.95,-156 1788.95,-173 1788.95,-173 1788.95,-179 1782.95,-185 1776.95,-185"/>
<text text-anchor="middle" x="1723.45" y="-173" font-family="sans" font-size="10.00">fastqc</text>
<text text-anchor="middle" x="1723.45" y="-162" font-family="sans" font-size="10.00">dirs: seqs</text>
<text text-anchor="middle" x="1723.45" y="-151" font-family="sans" font-size="10.00">sample: SRR7798789_1</text>
</g>
<!-- 36&#45;&gt;19 -->
<g id="edge37" class="edge">
<title>36&#45;&gt;19</title>
<path fill="none" stroke="grey" stroke-width="2" d="M1657.7,-146.08C1654.91,-145.37 1652.15,-144.68 1649.45,-144 1583.8,-127.59 1507.01,-109.7 1462.53,-99.47"/>
<polygon fill="grey" stroke="grey" stroke-width="2" points="1463.27,-96.05 1452.74,-97.22 1461.7,-102.87 1463.27,-96.05"/>
</g>
<!-- 37 -->
<g id="node38" class="node">
<title>37</title>
<path fill="none" stroke="#d85656" stroke-width="2" d="M1925.95,-185C1925.95,-185 1818.95,-185 1818.95,-185 1812.95,-185 1806.95,-179 1806.95,-173 1806.95,-173 1806.95,-156 1806.95,-156 1806.95,-150 1812.95,-144 1818.95,-144 1818.95,-144 1925.95,-144 1925.95,-144 1931.95,-144 1937.95,-150 1937.95,-156 1937.95,-156 1937.95,-173 1937.95,-173 1937.95,-179 1931.95,-185 1925.95,-185"/>
<text text-anchor="middle" x="1872.45" y="-173" font-family="sans" font-size="10.00">fastqc</text>
<text text-anchor="middle" x="1872.45" y="-162" font-family="sans" font-size="10.00">dirs: seqs</text>
<text text-anchor="middle" x="1872.45" y="-151" font-family="sans" font-size="10.00">sample: SRR7798789_2</text>
</g>
<!-- 37&#45;&gt;19 -->
<g id="edge38" class="edge">
<title>37&#45;&gt;19</title>
<path fill="none" stroke="grey" stroke-width="2" d="M1806.77,-145.77C1803.96,-145.15 1801.18,-144.55 1798.45,-144 1676.73,-119.4 1530.41,-102.14 1462.92,-94.86"/>
<polygon fill="grey" stroke="grey" stroke-width="2" points="1463.09,-91.36 1452.78,-93.78 1462.35,-98.32 1463.09,-91.36"/>
</g>
<!-- 38 -->
<g id="node39" class="node">
<title>38</title>
<path fill="none" stroke="#56c1d8" stroke-width="2" d="M4127.45,-108C4127.45,-108 4097.45,-108 4097.45,-108 4091.45,-108 4085.45,-102 4085.45,-96 4085.45,-96 4085.45,-84 4085.45,-84 4085.45,-78 4091.45,-72 4097.45,-72 4097.45,-72 4127.45,-72 4127.45,-72 4133.45,-72 4139.45,-78 4139.45,-84 4139.45,-84 4139.45,-96 4139.45,-96 4139.45,-102 4133.45,-108 4127.45,-108"/>
<text text-anchor="middle" x="4112.45" y="-87.5" font-family="sans" font-size="10.00">multiqc</text>
</g>
<!-- 38&#45;&gt;0 -->
<g id="edge11" class="edge">
<title>38&#45;&gt;0</title>
<path fill="none" stroke="grey" stroke-width="2" d="M4089.21,-71.7C4077.26,-62.8 4062.52,-51.82 4049.6,-42.2"/>
<polygon fill="grey" stroke="grey" stroke-width="2" points="4051.53,-39.27 4041.41,-36.1 4047.34,-44.88 4051.53,-39.27"/>
</g>
<!-- 39&#45;&gt;38 -->
<g id="edge39" class="edge">
<title>39&#45;&gt;38</title>
<path fill="none" stroke="grey" stroke-width="2" d="M2947.13,-145.54C2950.27,-144.96 2953.38,-144.44 2956.45,-144 3201.59,-108.62 3828.12,-159.26 4070.45,-108 4072.14,-107.64 4073.85,-107.22 4075.57,-106.75"/>
<polygon fill="grey" stroke="grey" stroke-width="2" points="4076.89,-110 4085.32,-103.59 4074.73,-103.34 4076.89,-110"/>
</g>
<!-- 40&#45;&gt;38 -->
<g id="edge40" class="edge">
<title>40&#45;&gt;38</title>
<path fill="none" stroke="grey" stroke-width="2" d="M3096.13,-145.56C3099.27,-144.98 3102.38,-144.45 3105.45,-144 3530.08,-81.63 3650.77,-197.87 4070.45,-108 4072.14,-107.64 4073.85,-107.21 4075.56,-106.74"/>
<polygon fill="grey" stroke="grey" stroke-width="2" points="4076.89,-109.99 4085.32,-103.56 4074.72,-103.33 4076.89,-109.99"/>
</g>
<!-- 41&#45;&gt;38 -->
<g id="edge41" class="edge">
<title>41&#45;&gt;38</title>
<path fill="none" stroke="grey" stroke-width="2" d="M3394.14,-145.62C3397.27,-145.02 3400.39,-144.48 3403.45,-144 3696.8,-98.42 3780.68,-172.57 4070.45,-108 4072.13,-107.62 4073.84,-107.19 4075.56,-106.7"/>
<polygon fill="grey" stroke="grey" stroke-width="2" points="4076.9,-109.95 4085.3,-103.5 4074.71,-103.3 4076.9,-109.95"/>
</g>
<!-- 42&#45;&gt;38 -->
<g id="edge42" class="edge">
<title>42&#45;&gt;38</title>
<path fill="none" stroke="grey" stroke-width="2" d="M3245.13,-145.59C3248.27,-144.99 3251.39,-144.46 3254.45,-144 3613.43,-90.03 3715.73,-185.22 4070.45,-108 4072.14,-107.63 4073.85,-107.2 4075.56,-106.72"/>
<polygon fill="grey" stroke="grey" stroke-width="2" points="4076.89,-109.97 4085.31,-103.54 4074.72,-103.32 4076.89,-109.97"/>
</g>
<!-- 43&#45;&gt;38 -->
<g id="edge43" class="edge">
<title>43&#45;&gt;38</title>
<path fill="none" stroke="grey" stroke-width="2" d="M3543.15,-145.68C3546.28,-145.07 3549.39,-144.5 3552.45,-144 3780.21,-106.81 3845.59,-159.94 4070.45,-108 4072.13,-107.61 4073.84,-107.16 4075.55,-106.67"/>
<polygon fill="grey" stroke="grey" stroke-width="2" points="4076.9,-109.91 4085.29,-103.43 4074.69,-103.27 4076.9,-109.91"/>
</g>
<!-- 44&#45;&gt;38 -->
<g id="edge44" class="edge">
<title>44&#45;&gt;38</title>
<path fill="none" stroke="grey" stroke-width="2" d="M3692.17,-145.79C3695.29,-145.14 3698.4,-144.54 3701.45,-144 3863.68,-115.18 3910.43,-147.32 4070.45,-108 4072.13,-107.59 4073.83,-107.12 4075.54,-106.61"/>
<polygon fill="grey" stroke="grey" stroke-width="2" points="4076.91,-109.84 4085.26,-103.32 4074.66,-103.21 4076.91,-109.84"/>
</g>
<!-- 45&#45;&gt;38 -->
<g id="edge45" class="edge">
<title>45&#45;&gt;38</title>
<path fill="none" stroke="grey" stroke-width="2" d="M3841.21,-146.03C3844.33,-145.32 3847.42,-144.64 3850.45,-144 3947.38,-123.51 3975.05,-134.75 4070.45,-108 4072.11,-107.53 4073.8,-107.02 4075.5,-106.47"/>
<polygon fill="grey" stroke="grey" stroke-width="2" points="4076.93,-109.68 4085.19,-103.05 4074.59,-103.08 4076.93,-109.68"/>
</g>
<!-- 46&#45;&gt;38 -->
<g id="edge46" class="edge">
<title>46&#45;&gt;38</title>
<path fill="none" stroke="grey" stroke-width="2" d="M3976.58,-143.99C4004.48,-133.47 4039.4,-120.18 4070.45,-108 4072.26,-107.29 4074.11,-106.56 4075.98,-105.81"/>
<polygon fill="grey" stroke="grey" stroke-width="2" points="4077.38,-109.02 4085.37,-102.06 4074.78,-102.52 4077.38,-109.02"/>
</g>
<!-- 47&#45;&gt;38 -->
<g id="edge47" class="edge">
<title>47&#45;&gt;38</title>
<path fill="none" stroke="grey" stroke-width="2" d="M4112.45,-143.69C4112.45,-135.91 4112.45,-126.84 4112.45,-118.45"/>
<polygon fill="grey" stroke="grey" stroke-width="2" points="4115.95,-118.32 4112.45,-108.32 4108.95,-118.32 4115.95,-118.32"/>
</g>
<!-- 48&#45;&gt;38 -->
<g id="edge48" class="edge">
<title>48&#45;&gt;38</title>
<path fill="none" stroke="grey" stroke-width="2" d="M4221.12,-143.88C4198.6,-132.92 4170.76,-119.37 4148.89,-108.73"/>
<polygon fill="grey" stroke="grey" stroke-width="2" points="4150.14,-105.45 4139.61,-104.22 4147.08,-111.74 4150.14,-105.45"/>
</g>
<!-- 49&#45;&gt;38 -->
<g id="edge49" class="edge">
<title>49&#45;&gt;38</title>
<path fill="none" stroke="grey" stroke-width="2" d="M4344.7,-146.08C4341.91,-145.37 4339.15,-144.68 4336.45,-144 4270.8,-127.59 4194.01,-109.7 4149.53,-99.47"/>
<polygon fill="grey" stroke="grey" stroke-width="2" points="4150.27,-96.05 4139.74,-97.22 4148.7,-102.87 4150.27,-96.05"/>
</g>
<!-- 50&#45;&gt;38 -->
<g id="edge50" class="edge">
<title>50&#45;&gt;38</title>
<path fill="none" stroke="grey" stroke-width="2" d="M4493.77,-145.77C4490.96,-145.15 4488.18,-144.55 4485.45,-144 4363.73,-119.4 4217.41,-102.14 4149.92,-94.86"/>
<polygon fill="grey" stroke="grey" stroke-width="2" points="4150.09,-91.36 4139.78,-93.78 4149.35,-98.32 4150.09,-91.36"/>
</g>
<!-- 51&#45;&gt;38 -->
<g id="edge51" class="edge">
<title>51&#45;&gt;38</title>
<path fill="none" stroke="grey" stroke-width="2" d="M4642.8,-145.63C4639.98,-145.05 4637.19,-144.5 4634.45,-144 4454.41,-111.35 4235.52,-97.31 4149.59,-92.77"/>
<polygon fill="grey" stroke="grey" stroke-width="2" points="4149.72,-89.27 4139.55,-92.25 4149.35,-96.26 4149.72,-89.27"/>
</g>
<!-- 52&#45;&gt;38 -->
<g id="edge52" class="edge">
<title>52&#45;&gt;38</title>
<path fill="none" stroke="grey" stroke-width="2" d="M4791.81,-145.55C4788.99,-144.99 4786.2,-144.47 4783.45,-144 4544.22,-103.37 4251.6,-93.78 4149.61,-91.61"/>
<polygon fill="grey" stroke="grey" stroke-width="2" points="4149.57,-88.11 4139.51,-91.41 4149.43,-95.11 4149.57,-88.11"/>
</g>
<!-- 53&#45;&gt;38 -->
<g id="edge53" class="edge">
<title>53&#45;&gt;38</title>
<path fill="none" stroke="grey" stroke-width="2" d="M5089.83,-145.47C5087,-144.93 5084.2,-144.43 5081.45,-144 4896.97,-114.96 4305.38,-96.47 4150.08,-92.04"/>
<polygon fill="grey" stroke="grey" stroke-width="2" points="4149.76,-88.53 4139.66,-91.74 4149.56,-95.52 4149.76,-88.53"/>
</g>
<!-- 54&#45;&gt;38 -->
<g id="edge54" class="edge">
<title>54&#45;&gt;38</title>
<path fill="none" stroke="grey" stroke-width="2" d="M4940.82,-145.5C4938,-144.95 4935.2,-144.45 4932.45,-144 4633.41,-95.4 4266.2,-90.96 4149.72,-90.86"/>
<polygon fill="grey" stroke="grey" stroke-width="2" points="4149.56,-87.36 4139.56,-90.86 4149.56,-94.36 4149.56,-87.36"/>
</g>
<!-- 55&#45;&gt;38 -->
<g id="edge55" class="edge">
<title>55&#45;&gt;38</title>
<path fill="none" stroke="grey" stroke-width="2" d="M5238.83,-145.44C5236.01,-144.91 5233.2,-144.42 5230.45,-144 5121.82,-127.3 4331.99,-98.72 4149.85,-92.31"/>
<polygon fill="grey" stroke="grey" stroke-width="2" points="4149.81,-88.8 4139.7,-91.95 4149.57,-95.8 4149.81,-88.8"/>
</g>
<!-- 56&#45;&gt;38 -->
<g id="edge56" class="edge">
<title>56&#45;&gt;38</title>
<path fill="none" stroke="grey" stroke-width="2" d="M5502.93,-155.75C5466.6,-151.7 5420.57,-146.98 5379.45,-144 5131.05,-126.01 4332.13,-98.42 4149.75,-92.25"/>
<polygon fill="grey" stroke="grey" stroke-width="2" points="4149.71,-88.75 4139.6,-91.91 4149.47,-95.75 4149.71,-88.75"/>
</g>
</g>
</svg>
